<svg width="16" height="16" viewBox="0 0 16 16" fill="none" xmlns="http://www.w3.org/2000/svg">
<g id="Icon/Common/16x16/Signup">
<path id="Vector (Stroke)" fill-rule="evenodd" clip-rule="evenodd" d="M7.34188 3.18812C6.08626 3.18812 5.06838 4.1988 5.06838 5.44554C5.06838 6.69229 6.08626 7.70297 7.34188 7.70297C8.5975 7.70297 9.61539 6.69229 9.61539 5.44554C9.61539 4.1988 8.5975 3.18812 7.34188 3.18812ZM9.55694 8.09791C10.3237 7.4659 10.812 6.51234 10.812 5.44554C10.812 3.54262 9.25836 2 7.34188 2C5.42541 2 3.87179 3.54262 3.87179 5.44554C3.87179 6.51227 4.36 7.46578 5.12667 8.09779C2.71653 8.98998 1 11.2959 1 14H2.19658C2.19658 11.1784 4.50021 8.89109 7.34188 8.89109C8.46275 8.89109 9.4983 9.24627 10.3429 9.84958L11.0417 8.88509C10.588 8.56105 10.0894 8.295 9.55694 8.09791ZM11.5 10.75V8.75H12.75V10.75H14.75V12H12.75V14H11.5V12H9.5V10.75H11.5Z" fill="black"/>
</g>
</svg>
